<?xml version="1.0" encoding="UTF-8"?>
<svg xmlns="http://www.w3.org/2000/svg" width="512" height="512" viewBox="0 0 512 512">
  <defs>
    <radialGradient id="bg" cx="50%" cy="50%" r="50%">
      <stop offset="0%" stop-color="#0f2744"/>
      <stop offset="100%" stop-color="#0a1929"/>
    </radialGradient>
    <radialGradient id="pin" cx="50%" cy="30%" r="70%">
      <stop offset="0%" stop-color="#60a5fa"/>
      <stop offset="100%" stop-color="#2563eb"/>
    </radialGradient>
    <filter id="glow" x="-20%" y="-20%" width="140%" height="140%">
      <feGaussianBlur stdDeviation="8" result="blur"/>
      <feMerge><feMergeNode in="blur"/><feMergeNode in="SourceGraphic"/></feMerge>
    </filter>
  </defs>
  <rect width="512" height="512" rx="96" fill="url(#bg)"/>
  <circle cx="256" cy="256" r="140" fill="none" stroke="#1d4ed8" stroke-width="2" opacity="0.5"/>
  <circle cx="256" cy="256" r="180" fill="none" stroke="#1d4ed8" stroke-width="1" opacity="0.3" stroke-dasharray="12 8"/>
  <g filter="url(#glow)">
    <circle cx="256" cy="190" r="70" fill="url(#pin)"/>
    <path d="M256 300 C190 300 140 250 140 200 C140 150 196 100 256 100 C316 100 372 150 372 200 C372 250 322 300 256 300Z" fill="url(#pin)"/>
    <circle cx="256" cy="200" r="28" fill="white"/>
    <circle cx="256" cy="200" r="14" fill="#2563eb"/>
  </g>
  <circle cx="256" cy="200" r="28" fill="none" stroke="white" stroke-width="4"/>
  <circle cx="256" cy="200" r="14" fill="white"/>
  <circle cx="256" cy="200" r="6" fill="#2563eb"/>
  <circle cx="256" cy="96" r="18" fill="white" opacity="0.95"/>
  <circle cx="256" cy="96" r="8" fill="#2563eb"/>
  <rect x="236" y="76" width="40" height="40" rx="10" fill="white" opacity="0.1"/>
</svg>